<svg width="5663" height="1757" viewBox="0 0 5663 1757" fill="none" xmlns="http://www.w3.org/2000/svg">
<path d="M1747 828.698L960.316 1717.82C914.122 1770.06 832.761 1770.06 786.568 1717.82L245.592 1106.27H367.111L836.94 1637.49C856.323 1659.43 890.561 1659.43 909.944 1637.49L1537.16 928.302H0L786.568 39.1799C832.761 -13.06 914.122 -13.06 960.316 39.1799L1545.86 701.117H1424.23L909.944 119.745C890.561 97.8046 856.323 97.8046 836.94 119.745L209.844 828.698H1747Z" fill="#0E3646"/>
<path d="M916.246 1442.98C898.251 1464.03 865.86 1464.37 847.284 1443.8L784.36 1373.92H975.456L916.13 1442.87L916.246 1442.98ZM1063.46 1271.5H691.946L753.013 1339.39H1005.18L1063.46 1271.5ZM1151.58 1168.96H599.533L660.948 1236.97H1093.29L1151.69 1168.96H1151.58ZM1252 1052H494L568.418 1134.43H1181.06L1252 1052Z" fill="#D3AF79"/>
<path d="M2211.81 829.743C2078.67 814.419 1951.09 821.617 1951.09 653.753C1951.09 507.597 2046.28 482.638 2232.83 482.638C2502.37 482.638 2482.29 573.884 2484.61 666.638H2307C2307 636.804 2299.69 612.541 2218.2 612.541C2172.23 612.541 2144.72 619.042 2144.72 652.94C2144.72 681.962 2164.92 690.088 2230.27 693.339C2409.5 702.974 2505.5 718.414 2505.5 877.339C2505.5 995.169 2466.73 1071.9 2228.65 1071.9C2012.27 1071.9 1935.65 1042.88 1948.54 857.14H2132.53C2132.53 896.726 2153.54 928.999 2223.77 928.999C2275.43 928.999 2311.76 915.3 2311.76 878.964C2311.76 845.879 2270.55 836.128 2211.7 829.743H2211.81Z" fill="#0E3646"/>
<path d="M2582.35 494.827H2772.03V699.839H2789.79C2905.99 699.839 2952.89 598.959 2952.89 494.827H3149.07C3149.07 665.942 3080.46 758.812 2933.5 771.698V777.387C3085.22 784.7 3160.33 890.341 3160.33 1059.95H2958.58C2958.58 953.377 2910.98 845.182 2789.1 845.182H2772.15V1059.95H2582.47V494.943L2582.35 494.827Z" fill="#0E3646"/>
<path d="M3250.64 1059.83V926.677H3563.83C3614.68 926.677 3621.99 895.217 3621.99 859.694V798.399C3584.84 828.233 3530.75 852.496 3454.95 852.496C3244.26 852.496 3237.06 804.9 3237.06 644.233V494.943H3425.93V602.325C3425.93 682.194 3427.55 714.583 3524.37 714.583C3621.18 714.583 3621.99 658.86 3621.99 602.325V494.943H3811.67V946.992C3811.67 1014.79 3794.72 1059.95 3679.34 1059.95H3250.76L3250.64 1059.83Z" fill="#0E3646"/>
<path d="M4583.28 494.711H4393.6V644.117H4583.28V494.711Z" fill="#0E3646"/>
<path d="M3892.35 494.827H4082.03V875.017C4082.03 896.842 4095.73 910.54 4117.55 910.54H4334.63V1059.83H3989.97C3922.99 1059.83 3892.35 1040.44 3892.35 962.199V494.827ZM4393.6 697.402V1059.83H4583.28V697.402H4393.6ZM4853.63 722.477H5111.92V843.557H4853.63V1059.83H4663.95V625.543C4663.95 544.049 4697.04 494.827 4781.78 494.827H5121.55V640.17H4881.03C4860.02 640.17 4853.63 645.046 4853.63 667.567V722.477ZM5323.42 640.17H5174.14V494.827H5662.5V640.17H5513.22V1059.95H5323.54V640.17H5323.42Z" fill="#D3AF79"/>
<path d="M1956.08 1248.47C1961.89 1247.54 1967.34 1247.08 1972.68 1247.08C1978.25 1247.08 1983.94 1247.54 1989.51 1248.47V1312.67H2044.42V1248.47C2050.23 1247.54 2055.68 1247.08 2061.02 1247.08C2066.59 1247.08 2072.28 1247.54 2077.85 1248.47V1412.27C2072.28 1413.2 2066.71 1413.67 2061.25 1413.67C2055.8 1413.67 2050.23 1413.2 2044.42 1412.27V1341.46H1989.51V1412.27C1983.94 1413.2 1978.37 1413.67 1972.92 1413.67C1967.46 1413.67 1961.89 1413.2 1956.08 1412.27V1248.47Z" fill="#0E3646"/>
<path d="M2291.1 1403.92C2280.65 1396.6 2272.87 1386.5 2267.88 1373.85C2262.89 1361.2 2260.34 1346.8 2260.34 1330.66C2260.34 1314.53 2262.89 1299.9 2267.88 1287.01C2272.87 1274.13 2280.65 1264.03 2291.1 1256.72C2301.55 1249.4 2315.01 1245.69 2331.38 1245.69C2347.75 1245.69 2361.21 1249.4 2371.66 1256.72C2382.11 1264.03 2389.89 1274.13 2394.88 1287.01C2399.87 1299.9 2402.42 1314.41 2402.42 1330.66C2402.42 1346.92 2399.87 1361.2 2394.88 1373.85C2389.89 1386.5 2382.11 1396.6 2371.66 1403.92C2361.21 1411.23 2347.75 1414.94 2331.38 1414.94C2315.01 1414.94 2301.55 1411.23 2291.1 1403.92ZM2331.38 1387.2C2354.94 1387.2 2366.67 1368.39 2366.67 1330.66C2366.67 1311.86 2363.77 1297.7 2358.08 1288.29C2352.39 1278.89 2343.57 1274.13 2331.5 1274.13C2307.7 1274.13 2295.74 1292.94 2295.74 1330.66C2295.74 1368.39 2307.58 1387.2 2331.26 1387.2H2331.38Z" fill="#0E3646"/>
<path d="M2589.43 1248.47C2595.7 1247.54 2601.51 1247.08 2606.96 1247.08C2613 1247.08 2618.92 1247.54 2624.49 1248.47L2662.1 1342.27L2700.87 1248.47C2705.75 1247.54 2710.97 1247.08 2716.54 1247.08C2722.46 1247.08 2728.04 1247.54 2733.14 1248.47L2740.92 1412.27C2735.35 1413.2 2729.89 1413.67 2724.55 1413.67C2719.21 1413.67 2714.34 1413.2 2709.35 1412.27L2705.28 1301.18L2672.08 1378.14C2669.99 1378.49 2667.79 1378.72 2665.47 1378.96C2663.15 1379.19 2660.94 1379.3 2658.62 1379.3C2656.64 1379.3 2654.67 1379.3 2652.7 1379.07C2650.72 1378.96 2648.63 1378.61 2646.55 1378.14L2615.55 1299.55L2612.42 1412.27C2607.66 1413.2 2603.01 1413.67 2598.25 1413.67C2593.5 1413.67 2588.5 1413.2 2583.28 1412.27L2589.66 1248.47H2589.43Z" fill="#0E3646"/>
<path d="M2925.84 1248.47H3018.71C3019.64 1253 3020.1 1257.64 3020.1 1262.4C3020.1 1267.4 3019.64 1272.16 3018.71 1276.8H2959.04V1312.32H3006.4C3007.33 1317.08 3007.8 1321.73 3007.8 1326.49C3007.8 1331.24 3007.33 1336 3006.4 1340.88H2959.04V1384.18H3020.33C3021.26 1388.71 3021.73 1393.35 3021.73 1398.11C3021.73 1403.1 3021.26 1407.86 3020.33 1412.51H2925.84V1248.71V1248.47Z" fill="#0E3646"/>
<path d="M3406.66 1248.47H3499.52C3500.45 1253 3500.92 1257.64 3500.92 1262.4C3500.92 1267.4 3500.45 1272.16 3499.52 1276.8H3439.86V1312.32H3487.22C3488.15 1317.08 3488.61 1321.73 3488.61 1326.49C3488.61 1331.24 3488.15 1336 3487.22 1340.88H3439.86V1384.18H3501.15C3502.08 1388.71 3502.54 1393.35 3502.54 1398.11C3502.54 1403.1 3502.08 1407.86 3501.15 1412.51H3406.66V1248.71V1248.47Z" fill="#0E3646"/>
<path d="M3682.35 1248.47C3688.16 1247.54 3693.5 1247.08 3698.49 1247.08C3703.95 1247.08 3709.52 1247.54 3715.09 1248.47V1383.48H3771.85C3772.32 1386.04 3772.55 1388.48 3772.78 1390.91C3773.02 1393.35 3773.02 1395.56 3773.02 1397.65C3773.02 1400.08 3773.02 1402.52 3772.78 1404.84C3772.55 1407.17 3772.32 1409.72 3771.85 1412.27H3682.35V1248.47Z" fill="#0E3646"/>
<path d="M3949.58 1248.47H4042.44C4043.37 1253 4043.84 1257.64 4043.84 1262.4C4043.84 1267.4 4043.37 1272.16 4042.44 1276.8H3982.78V1312.32H4030.14C4031.07 1317.08 4031.53 1321.73 4031.53 1326.49C4031.53 1331.24 4031.07 1336 4030.14 1340.88H3982.78V1384.18H4044.07C4045 1388.71 4045.46 1393.35 4045.46 1398.11C4045.46 1403.1 4045 1407.86 4044.07 1412.51H3949.58V1248.71V1248.47Z" fill="#0E3646"/>
<path d="M4211.69 1248.47C4214.25 1248.12 4217.27 1247.89 4220.63 1247.54C4224 1247.2 4226.9 1247.08 4229.57 1247.08C4235.37 1247.08 4241.41 1247.54 4247.8 1248.47L4283.55 1377.56L4319.77 1248.47C4326.04 1247.54 4331.72 1247.08 4337.06 1247.08C4342.4 1247.08 4348.09 1247.54 4354.13 1248.47L4301.31 1412.27C4298.18 1412.74 4295.04 1413.09 4292.14 1413.32C4289.24 1413.55 4285.99 1413.67 4282.74 1413.67C4279.72 1413.67 4276.7 1413.67 4273.8 1413.32C4270.9 1412.97 4267.76 1412.74 4264.28 1412.27L4211.93 1248.47H4211.69Z" fill="#0E3646"/>
<path d="M4502.6 1412.27C4505.15 1412.62 4508.17 1412.85 4511.54 1413.2C4514.9 1413.55 4517.81 1413.67 4520.48 1413.67C4526.28 1413.67 4532.32 1413.2 4538.7 1412.27L4574.45 1283.18L4610.67 1412.27C4616.94 1413.2 4622.63 1413.67 4627.97 1413.67C4633.31 1413.67 4639 1413.2 4645.03 1412.27L4592.21 1248.47C4589.08 1248.01 4585.95 1247.66 4583.04 1247.43C4580.14 1247.2 4576.89 1247.08 4573.64 1247.08C4570.62 1247.08 4567.6 1247.08 4564.7 1247.43C4561.8 1247.78 4558.67 1248.01 4555.18 1248.47L4502.83 1412.27H4502.6Z" fill="#0E3646"/>
<path d="M4832.97 1276.8H4792.23C4791.3 1272.27 4790.83 1267.51 4790.83 1262.4C4790.83 1257.64 4791.3 1253.12 4792.23 1248.47H4907.26C4908.19 1253 4908.66 1257.64 4908.66 1262.4C4908.66 1267.4 4908.19 1272.16 4907.26 1276.8H4866.52V1412.27L4858.28 1413.2C4855.49 1413.55 4852.94 1413.67 4850.27 1413.67C4844.93 1413.67 4839.24 1413.2 4832.97 1412.27V1276.8Z" fill="#0E3646"/>
<path d="M5102.86 1403.92C5092.42 1396.6 5084.64 1386.5 5079.65 1373.85C5074.66 1361.2 5072.1 1346.8 5072.1 1330.66C5072.1 1314.53 5074.66 1299.9 5079.65 1287.01C5084.64 1274.13 5092.42 1264.03 5102.86 1256.72C5113.31 1249.4 5126.78 1245.69 5143.14 1245.69C5159.51 1245.69 5172.98 1249.4 5183.43 1256.72C5193.87 1264.03 5201.65 1274.13 5206.64 1287.01C5211.63 1299.9 5214.19 1314.41 5214.19 1330.66C5214.19 1346.92 5211.63 1361.2 5206.64 1373.85C5201.65 1386.5 5193.87 1396.6 5183.43 1403.92C5172.98 1411.23 5159.51 1414.94 5143.14 1414.94C5126.78 1414.94 5113.31 1411.23 5102.86 1403.92ZM5143.14 1387.2C5166.71 1387.2 5178.43 1368.39 5178.43 1330.66C5178.43 1311.86 5175.53 1297.7 5169.84 1288.29C5164.16 1278.89 5155.33 1274.13 5143.26 1274.13C5119.46 1274.13 5107.51 1292.94 5107.51 1330.66C5107.51 1368.39 5119.35 1387.2 5143.03 1387.2H5143.14Z" fill="#0E3646"/>
<path d="M5398.3 1248.47C5405.03 1247.66 5411.3 1247.08 5417.1 1246.5C5422.9 1245.92 5429.41 1245.69 5436.6 1245.69C5444.96 1245.69 5453.2 1246.5 5461.33 1248.01C5469.45 1249.52 5476.77 1252.19 5483.38 1256.02C5490 1259.85 5495.22 1265.07 5499.17 1271.69C5503.12 1278.42 5505.09 1286.78 5505.09 1297C5505.09 1304.89 5503.81 1311.74 5501.26 1317.43C5498.71 1323.12 5495.57 1327.88 5492.09 1331.59C5488.49 1335.31 5485.01 1338.21 5481.76 1340.42L5477.93 1342.97L5517.75 1412.16C5514.73 1412.51 5511.48 1412.85 5508.23 1413.2C5504.86 1413.55 5501.49 1413.78 5498.01 1413.78C5495.11 1413.78 5492.32 1413.67 5489.42 1413.32C5486.63 1412.97 5483.73 1412.62 5480.83 1412.16L5438 1336.12L5443.45 1333.33C5445.54 1332.29 5448.09 1330.9 5451.11 1329.27C5454.13 1327.65 5457.03 1325.56 5459.94 1323C5462.84 1320.45 5465.28 1317.43 5467.25 1313.95C5469.22 1310.35 5470.27 1306.17 5470.27 1301.29C5470.27 1291.77 5467.48 1284.69 5462.02 1280.28C5456.57 1275.75 5449.49 1273.55 5440.9 1273.55C5437.53 1273.55 5434.51 1273.78 5431.73 1274.25V1412.51L5423.49 1413.44C5420.7 1413.78 5418.15 1413.9 5415.48 1413.9C5410.37 1413.9 5404.56 1413.44 5398.41 1412.51V1248.71L5398.3 1248.47Z" fill="#0E3646"/>
<path d="M494 701L852.393 301.033C867.021 284.798 892.562 285.03 906.842 301.497L1252 701L1085.86 664.471C948.637 634.32 806.65 633.972 669.307 663.427L494 701Z" fill="#D3AF79"/>
</svg>
